<svg xmlns="http://www.w3.org/2000/svg" xmlns:xlink="http://www.w3.org/1999/xlink" width="40" zoomAndPan="magnify" viewBox="0 0 30 30.000001" height="40" preserveAspectRatio="xMidYMid meet" version="1.0"><defs><clipPath id="9a6a6fd6b3"><path d="M 4.597656 0 L 25.410156 0 L 25.410156 29.03125 L 4.597656 29.03125 Z M 4.597656 0 " clip-rule="nonzero"/></clipPath><clipPath id="a5e727d6e1"><path d="M 11.734375 16.601562 L 18.277344 16.601562 L 18.277344 25.042969 L 11.734375 25.042969 Z M 11.734375 16.601562 " clip-rule="nonzero"/></clipPath></defs><g clip-path="url(#9a6a6fd6b3)"><path fill="#b1b9c6" d="M 24.933594 24.660156 C 24.664062 22.238281 24.324219 19.226562 24.011719 16.847656 C 23.453125 12.617188 23.242188 12.460938 23.089844 12.347656 C 22.992188 12.277344 22.832031 12.15625 20.28125 12.058594 C 20.097656 12.050781 19.90625 12.042969 19.707031 12.035156 C 19.679688 11.039062 19.609375 9.992188 19.328125 9.015625 C 19.125 8.316406 18.683594 7.707031 18.042969 7.242188 C 17.976562 7.085938 17.90625 6.929688 17.832031 6.78125 C 18.238281 6.363281 18.453125 5.875 18.464844 5.332031 C 18.488281 4.101562 17.476562 3.039062 17.164062 2.742188 C 16.421875 2.03125 15.640625 1.503906 14.554688 0.972656 L 12.660156 0.046875 C 12.59375 0.015625 12.527344 0.0117188 12.460938 0.0351562 C 12.390625 0.0585938 12.339844 0.101562 12.308594 0.167969 C 12.273438 0.234375 12.269531 0.300781 12.296875 0.371094 C 12.320312 0.4375 12.363281 0.488281 12.429688 0.519531 L 14.324219 1.445312 C 15.355469 1.953125 16.097656 2.453125 16.800781 3.125 C 17.652344 3.9375 17.945312 4.792969 17.9375 5.320312 C 17.929688 5.671875 17.804688 5.992188 17.570312 6.28125 C 17.28125 5.765625 16.949219 5.277344 16.578125 4.816406 C 16.53125 4.757812 16.472656 4.726562 16.402344 4.71875 C 16.328125 4.710938 16.265625 4.730469 16.207031 4.777344 C 16.152344 4.820312 16.117188 4.882812 16.109375 4.953125 C 16.101562 5.027344 16.121094 5.089844 16.167969 5.148438 C 16.746094 5.863281 17.21875 6.644531 17.578125 7.492188 C 17.695312 7.769531 17.773438 8 17.777344 8.226562 C 17.785156 8.460938 17.699219 8.667969 17.554688 8.773438 C 17.355469 8.917969 17.058594 8.867188 16.851562 8.753906 C 16.589844 8.609375 16.378906 8.355469 16.175781 8.109375 C 16.101562 8.023438 16.011719 7.996094 15.90625 8.023438 C 15.796875 8.054688 15.730469 8.121094 15.710938 8.234375 C 15.683594 8.402344 15.605469 8.542969 15.476562 8.65625 C 15.347656 8.769531 15.199219 8.832031 15.027344 8.84375 C 14.859375 8.851562 14.703125 8.808594 14.5625 8.710938 C 14.421875 8.613281 14.324219 8.484375 14.277344 8.320312 C 14.234375 8.183594 14.144531 8.125 14.003906 8.136719 C 13.859375 8.148438 13.78125 8.222656 13.761719 8.363281 C 13.726562 8.632812 13.410156 8.8125 13.148438 8.808594 C 12.761719 8.796875 12.445312 8.515625 12.289062 8.347656 C 12.15625 8.199219 11.839844 7.738281 11.800781 7.679688 C 11.742188 7.585938 11.675781 7.484375 11.609375 7.390625 C 11.539062 7.28125 11.46875 7.183594 11.40625 7.089844 C 10.839844 6.25 10.554688 5.828125 9.429688 5.367188 C 9.363281 5.339844 9.292969 5.339844 9.226562 5.367188 C 9.160156 5.398438 9.113281 5.445312 9.085938 5.511719 C 9.058594 5.578125 9.058594 5.648438 9.085938 5.714844 C 9.113281 5.78125 9.164062 5.828125 9.230469 5.855469 C 10.207031 6.253906 10.414062 6.5625 10.96875 7.386719 C 11.035156 7.480469 11.101562 7.582031 11.175781 7.6875 C 11.238281 7.777344 11.367188 7.980469 11.371094 7.984375 C 11.273438 8.113281 11.183594 8.246094 11.097656 8.386719 C 10.464844 9.441406 10.292969 10.609375 10.253906 12.015625 C 9.988281 12.023438 9.734375 12.03125 9.496094 12.039062 C 6.914062 12.144531 6.734375 12.308594 6.628906 12.410156 C 6.503906 12.527344 6.308594 12.707031 5.871094 16.445312 C 5.621094 18.578125 5.355469 21.289062 5.125 23.679688 C 4.929688 25.691406 4.742188 27.59375 4.605469 28.730469 C 4.597656 28.808594 4.617188 28.878906 4.671875 28.9375 C 4.722656 28.996094 4.789062 29.027344 4.867188 29.027344 L 25.132812 28.945312 C 25.210938 28.945312 25.277344 28.914062 25.332031 28.855469 C 25.382812 28.796875 25.402344 28.726562 25.394531 28.648438 C 25.277344 27.738281 25.117188 26.3125 24.933594 24.660156 Z M 11.550781 8.65625 C 11.59375 8.585938 11.640625 8.515625 11.6875 8.445312 C 11.753906 8.535156 11.824219 8.621094 11.902344 8.703125 C 12.269531 9.101562 12.707031 9.324219 13.136719 9.332031 C 13.5 9.339844 13.800781 9.210938 14.042969 8.945312 C 14.316406 9.246094 14.65625 9.386719 15.058594 9.367188 C 15.464844 9.34375 15.835938 9.109375 16.050781 8.773438 C 16.210938 8.953125 16.394531 9.097656 16.597656 9.21875 C 16.800781 9.328125 17.019531 9.386719 17.25 9.390625 C 17.476562 9.394531 17.683594 9.328125 17.867188 9.199219 C 18.152344 8.992188 18.316406 8.625 18.304688 8.214844 C 18.304688 8.207031 18.304688 8.203125 18.304688 8.195312 C 18.546875 8.480469 18.71875 8.800781 18.820312 9.160156 C 19.039062 9.914062 19.144531 10.757812 19.175781 12.019531 C 17.898438 11.984375 16.394531 11.964844 14.894531 11.960938 C 13.402344 11.957031 11.984375 11.96875 10.78125 12 C 10.835938 10.207031 11.128906 9.359375 11.550781 8.65625 Z M 5.164062 28.496094 C 5.296875 27.351562 5.460938 25.660156 5.648438 23.730469 C 5.875 21.394531 6.132812 18.746094 6.378906 16.644531 C 6.726562 13.640625 6.917969 12.953125 6.992188 12.800781 C 7.101562 12.757812 7.589844 12.640625 9.644531 12.5625 C 9.835938 12.554688 10.035156 12.546875 10.246094 12.542969 C 10.242188 13.238281 10.261719 14.019531 10.285156 14.90625 L 10.289062 15.113281 C 10.289062 15.1875 10.316406 15.246094 10.367188 15.296875 C 10.417969 15.347656 10.480469 15.371094 10.550781 15.371094 L 10.558594 15.371094 C 10.632812 15.371094 10.691406 15.34375 10.742188 15.289062 C 10.792969 15.238281 10.816406 15.175781 10.816406 15.101562 L 10.808594 14.894531 C 10.789062 14.003906 10.769531 13.21875 10.773438 12.527344 C 11.976562 12.496094 13.402344 12.480469 14.898438 12.484375 C 16.53125 12.492188 17.984375 12.511719 19.1875 12.546875 C 19.191406 13.035156 19.191406 13.554688 19.1875 14.140625 C 19.1875 14.40625 19.1875 14.683594 19.1875 14.96875 C 19.1875 15.042969 19.210938 15.101562 19.265625 15.15625 C 19.316406 15.207031 19.378906 15.230469 19.449219 15.230469 C 19.523438 15.230469 19.585938 15.207031 19.636719 15.15625 C 19.6875 15.105469 19.714844 15.042969 19.714844 14.96875 C 19.714844 14.683594 19.714844 14.40625 19.714844 14.144531 C 19.71875 13.5625 19.71875 13.046875 19.714844 12.5625 C 21.402344 12.621094 22.496094 12.699219 22.765625 12.773438 C 22.851562 12.949219 23.074219 13.734375 23.511719 17.09375 C 23.820312 19.4375 24.148438 22.367188 24.410156 24.71875 C 24.574219 26.203125 24.722656 27.507812 24.835938 28.421875 Z M 5.164062 28.496094 " fill-opacity="1" fill-rule="nonzero"/></g><g clip-path="url(#a5e727d6e1)"><path fill="#b1b9c6" d="M 15.011719 16.605469 C 15.007812 16.605469 15.003906 16.605469 15 16.601562 C 14.894531 16.597656 14.800781 16.679688 14.792969 16.789062 C 14.714844 18.007812 14.4375 18.933594 13.964844 19.5625 C 13.5 20.1875 12.832031 20.539062 11.917969 20.59375 C 11.816406 20.597656 11.738281 20.679688 11.734375 20.78125 C 11.730469 20.882812 11.804688 20.972656 11.902344 20.984375 C 12.691406 21.09375 13.34375 21.414062 13.832031 22.019531 C 14.324219 22.625 14.664062 23.539062 14.792969 24.863281 C 14.800781 24.96875 14.894531 25.046875 15 25.039062 C 15 25.039062 15.003906 25.039062 15.003906 25.039062 C 15.113281 25.050781 15.207031 24.972656 15.21875 24.863281 C 15.347656 23.539062 15.6875 22.628906 16.179688 22.019531 C 16.667969 21.417969 17.320312 21.097656 18.105469 20.984375 C 18.207031 20.972656 18.28125 20.882812 18.277344 20.78125 C 18.273438 20.683594 18.191406 20.601562 18.089844 20.59375 C 17.179688 20.542969 16.511719 20.1875 16.046875 19.566406 C 15.574219 18.933594 15.296875 18.007812 15.21875 16.789062 C 15.210938 16.679688 15.121094 16.597656 15.011719 16.605469 Z M 15.003906 18.121094 C 14.855469 18.785156 14.617188 19.351562 14.28125 19.800781 C 13.914062 20.292969 13.4375 20.636719 12.847656 20.824219 C 13.34375 21.019531 13.777344 21.328125 14.136719 21.769531 C 14.527344 22.253906 14.820312 22.886719 15.003906 23.691406 C 15.191406 22.886719 15.484375 22.253906 15.875 21.773438 C 16.234375 21.328125 16.667969 21.019531 17.164062 20.824219 C 16.574219 20.636719 16.097656 20.292969 15.730469 19.800781 C 15.394531 19.351562 15.15625 18.789062 15.003906 18.121094 Z M 15.003906 18.121094 " fill-opacity="1" fill-rule="evenodd"/></g></svg>